<svg width="32" height="34" viewBox="0 0 32 34" fill="none" xmlns="http://www.w3.org/2000/svg">
<g id="mdi:linkedin">
<path id="Vector" d="M25.3333 4.65137C26.0406 4.65137 26.7189 4.93658 27.219 5.44425C27.719 5.95192 28 6.64048 28 7.35844V26.3079C28 27.0259 27.719 27.7144 27.219 28.2221C26.7189 28.7298 26.0406 29.015 25.3333 29.015H6.66667C5.95942 29.015 5.28115 28.7298 4.78105 28.2221C4.28095 27.7144 4 27.0259 4 26.3079V7.35844C4 6.64048 4.28095 5.95192 4.78105 5.44425C5.28115 4.93658 5.95942 4.65137 6.66667 4.65137H25.3333ZM24.6667 25.6312V18.4574C24.6667 17.2872 24.2087 16.1648 23.3936 15.3373C22.5784 14.5098 21.4728 14.0449 20.32 14.0449C19.1867 14.0449 17.8667 14.7487 17.2267 15.8045V14.3021H13.5067V25.6312H17.2267V18.9582C17.2267 17.916 18.0533 17.0633 19.08 17.0633C19.5751 17.0633 20.0499 17.2629 20.3999 17.6183C20.75 17.9737 20.9467 18.4557 20.9467 18.9582V25.6312H24.6667ZM9.17333 12.177C9.76742 12.177 10.3372 11.9374 10.7573 11.511C11.1773 11.0846 11.4133 10.5062 11.4133 9.90308C11.4133 8.6443 10.4133 7.61561 9.17333 7.61561C8.57571 7.61561 8.00257 7.85661 7.57999 8.2856C7.1574 8.71458 6.92 9.29641 6.92 9.90308C6.92 11.1619 7.93333 12.177 9.17333 12.177ZM11.0267 25.6312V14.3021H7.33333V25.6312H11.0267Z" fill="white"/>
</g>
</svg>
